<?xml version="1.0" encoding="utf-8"?>
<!-- Generator: Adobe Illustrator 16.0.4, SVG Export Plug-In . SVG Version: 6.00 Build 0)  -->
<!DOCTYPE svg PUBLIC "-//W3C//DTD SVG 1.1//EN" "http://www.w3.org/Graphics/SVG/1.1/DTD/svg11.dtd">
<svg version="1.1" id="Layer_1" xmlns="http://www.w3.org/2000/svg" xmlns:xlink="http://www.w3.org/1999/xlink" x="0px" y="0px"
	 width="283.464px" height="283.464px" viewBox="0 0 283.464 283.464" enable-background="new 0 0 283.464 283.464"
	 xml:space="preserve">
<circle fill="#4ABB84" cx="90.29" cy="142.392" r="4.459"/>
<circle fill="#4ABB84" cx="199.735" cy="142.392" r="4.459"/>
<path opacity="0.6" fill="#4ABB84" d="M266.816,135.26l-54.729-94.785c-2.547-4.414-7.255-7.132-12.353-7.132H90.29
	c-5.096,0-9.804,2.718-12.352,7.132L23.214,135.26c-2.548,4.413-2.548,9.85,0,14.263l54.725,94.785
	c2.548,4.414,7.256,7.132,12.352,7.132h109.444c5.098,0,9.806-2.718,12.353-7.132l54.729-94.785
	C269.363,145.111,269.363,139.672,266.816,135.26z M199.734,43.146c2.463,0,4.459,1.997,4.459,4.46s-1.996,4.46-4.459,4.46
	s-4.459-1.997-4.459-4.46S197.271,43.146,199.734,43.146z M90.289,43.146c2.463,0,4.459,1.997,4.459,4.46s-1.996,4.46-4.459,4.46
	s-4.459-1.997-4.459-4.46S87.826,43.146,90.289,43.146z M35.564,146.852c-2.463,0-4.459-1.997-4.459-4.46s1.996-4.46,4.459-4.46
	c2.464,0,4.459,1.997,4.459,4.46S38.028,146.852,35.564,146.852z M90.289,241.637c-2.463,0-4.459-1.997-4.459-4.46
	s1.996-4.46,4.459-4.46s4.459,1.997,4.459,4.46S92.752,241.637,90.289,241.637z M199.734,241.637c-2.463,0-4.459-1.997-4.459-4.46
	s1.996-4.46,4.459-4.46s4.459,1.997,4.459,4.46S202.198,241.637,199.734,241.637z M191.5,222.914H98.525l-46.49-80.522l46.49-80.522
	H191.5l46.49,80.522L191.5,222.914z M254.461,146.852c-2.464,0-4.46-1.997-4.46-4.46s1.996-4.46,4.46-4.46
	c2.463,0,4.459,1.997,4.459,4.46S256.924,146.852,254.461,146.852z"/>
<path opacity="0.6" fill="#4ABB84" d="M199.734,33.343c-7.875,0-14.263,6.386-14.263,14.263v189.57
	c0,7.878,6.388,14.263,14.263,14.263c7.88,0,14.263-6.385,14.263-14.263V47.606C213.998,39.729,207.614,33.343,199.734,33.343z
	 M199.734,241.637c-2.463,0-4.459-1.997-4.459-4.46s1.996-4.46,4.459-4.46s4.459,1.997,4.459,4.46S202.198,241.637,199.734,241.637z
	 M199.734,52.067c-2.463,0-4.459-1.997-4.459-4.46s1.996-4.46,4.459-4.46s4.459,1.997,4.459,4.46S202.198,52.067,199.734,52.067z"/>
<path opacity="0.8" fill="#4ABB84" d="M199.736,33.343c-7.879,0-14.263,6.386-14.263,14.263v80.522h-80.919V47.606
	c0-7.877-6.387-14.263-14.263-14.263c-7.879,0-14.263,6.386-14.263,14.263v189.57c0,7.878,6.384,14.263,14.263,14.263
	c7.876,0,14.263-6.385,14.263-14.263v-80.522h80.919v80.522c0,7.878,6.384,14.263,14.263,14.263c7.876,0,14.263-6.385,14.263-14.263
	V47.606C214,39.729,207.612,33.343,199.736,33.343z M90.289,241.637c-2.463,0-4.459-1.997-4.459-4.46s1.996-4.46,4.459-4.46
	s4.459,1.997,4.459,4.46S92.752,241.637,90.289,241.637z M90.289,52.067c-2.463,0-4.459-1.997-4.459-4.46s1.996-4.46,4.459-4.46
	s4.459,1.997,4.459,4.46S92.752,52.067,90.289,52.067z M199.734,241.637c-2.463,0-4.459-1.997-4.459-4.46s1.996-4.46,4.459-4.46
	s4.459,1.997,4.459,4.46S202.198,241.637,199.734,241.637z M199.734,52.067c-2.463,0-4.459-1.997-4.459-4.46s1.996-4.46,4.459-4.46
	s4.459,1.997,4.459,4.46S202.198,52.067,199.734,52.067z"/>
<path opacity="0.6" fill="#4ABB84" d="M90.29,33.343c-7.877,0-14.263,6.386-14.263,14.263v189.57
	c0,7.878,6.386,14.263,14.263,14.263c7.878,0,14.263-6.385,14.263-14.263V47.606C104.553,39.729,98.168,33.343,90.29,33.343z
	 M90.289,241.637c-2.463,0-4.459-1.997-4.459-4.46s1.996-4.46,4.459-4.46s4.459,1.997,4.459,4.46S92.752,241.637,90.289,241.637z
	 M90.289,52.067c-2.463,0-4.459-1.997-4.459-4.46s1.996-4.46,4.459-4.46s4.459,1.997,4.459,4.46S92.752,52.067,90.289,52.067z"/>
</svg>
